<svg width="49" height="48" viewBox="0 0 49 48" fill="none" xmlns="http://www.w3.org/2000/svg">
<path d="M35.0215 24.0001C37.9389 24.0001 40.7368 25.159 42.7997 27.2219C44.8626 29.2848 46.0215 32.0827 46.0215 35.0001C46.0215 37.9175 44.8626 40.7154 42.7997 42.7783C40.7368 44.8412 37.9389 46.0001 35.0215 46.0001C32.1041 46.0001 29.3062 44.8412 27.2433 42.7783C25.1804 40.7154 24.0215 37.9175 24.0215 35.0001C24.0215 32.0827 25.1804 29.2848 27.2433 27.2219C29.3062 25.159 32.1041 24.0001 35.0215 24.0001ZM35.0215 28.0001L34.8415 28.0161C34.6417 28.0526 34.4577 28.1491 34.3141 28.2927C34.1705 28.4363 34.074 28.6203 34.0375 28.8201L34.0215 29.0001V34.0001H29.0175L28.8375 34.0181C28.6377 34.0546 28.4537 34.1511 28.3101 34.2947C28.1665 34.4383 28.07 34.6223 28.0335 34.8221L28.0175 35.0021L28.0335 35.1821C28.07 35.3819 28.1665 35.5659 28.3101 35.7095C28.4537 35.8531 28.6377 35.9496 28.8375 35.9861L29.0175 36.0021H34.0215V41.0081L34.0375 41.1881C34.074 41.3879 34.1705 41.5719 34.3141 41.7155C34.4577 41.8591 34.6417 41.9556 34.8415 41.9921L35.0215 42.0081L35.2015 41.9921C35.4013 41.9556 35.5852 41.8591 35.7289 41.7155C35.8725 41.5719 35.969 41.3879 36.0055 41.1881L36.0215 41.0081V36.0001H41.0295L41.2095 35.9861C41.4093 35.9496 41.5933 35.8531 41.7369 35.7095C41.8805 35.5659 41.977 35.3819 42.0135 35.1821L42.0295 35.0021L42.0135 34.8221C41.9769 34.622 41.8801 34.4379 41.7361 34.2942C41.592 34.1506 41.4077 34.0542 41.2075 34.0181L41.0275 34.0021H36.0215V29.0021L36.0055 28.8221C35.9694 28.6219 35.873 28.4375 35.7294 28.2935C35.5857 28.1495 35.4016 28.0527 35.2015 28.0161L35.0215 28.0001ZM27.8715 5.0081C28.6556 5.00804 29.4261 5.21285 30.1066 5.60225C30.7872 5.99164 31.3542 6.55211 31.7515 7.2281L33.3795 10.0021H37.5215C39.245 10.0021 40.898 10.6866 42.117 11.9052C43.3359 13.1238 44.021 14.7765 44.0215 16.5001V25.6201C43.1297 24.7631 42.1202 24.0378 41.0235 23.4661L41.0215 16.5001C41.0215 15.5718 40.6527 14.6816 39.9964 14.0252C39.34 13.3689 38.4497 13.0001 37.5215 13.0001H32.5215C32.26 13.0002 32.003 12.932 31.7761 12.8022C31.5491 12.6724 31.36 12.4855 31.2275 12.2601L29.1635 8.7461C29.0312 8.52097 28.8424 8.33427 28.6158 8.20448C28.3892 8.0747 28.1326 8.00631 27.8715 8.0061H20.2655C20.0466 8.00628 19.8304 8.05435 19.6321 8.14695C19.4338 8.23954 19.2581 8.37442 19.1175 8.5421L18.9875 8.7221L16.8015 12.2841C16.6674 12.5027 16.4796 12.6834 16.2558 12.8087C16.0321 12.9341 15.7799 13 15.5235 13.0001H10.5235C10.0637 12.9998 9.60835 13.0902 9.18348 13.266C8.75861 13.4417 8.37253 13.6995 8.04732 14.0245C7.7221 14.3496 7.46411 14.7355 7.2881 15.1602C7.11208 15.585 7.02148 16.0403 7.02148 16.5001V35.5001C7.02148 37.4321 8.58948 39.0001 10.5215 39.0001H22.6475C22.9935 40.0661 23.4715 41.0741 24.0655 42.0001H10.5215C8.79758 42.0001 7.14428 41.3153 5.92529 40.0963C4.7063 38.8773 4.02148 37.224 4.02148 35.5001V16.5001C4.02148 14.7762 4.7063 13.1229 5.92529 11.9039C7.14428 10.6849 8.79758 10.0001 10.5215 10.0001H14.6815L16.4315 7.1521C16.8339 6.49654 17.3976 5.95507 18.0688 5.57937C18.74 5.20368 19.4963 5.00631 20.2655 5.0061L27.8715 5.0081ZM24.0215 16.0001C25.9243 15.9994 27.7785 16.6017 29.3175 17.7207C30.8566 18.8397 32.0014 20.4177 32.5875 22.2281C31.5848 22.4201 30.6295 22.7194 29.7215 23.1261C29.2783 21.768 28.3648 20.6127 27.1456 19.8681C25.9264 19.1235 24.4815 18.8386 23.0709 19.0645C21.6602 19.2905 20.3766 20.0125 19.4509 21.1006C18.5253 22.1887 18.0184 23.5715 18.0215 25.0001C18.0215 27.8601 20.0215 30.2501 22.6975 30.8541C22.3783 31.8049 22.1703 32.7895 22.0775 33.7881C19.9173 33.3039 18.0112 32.0406 16.7236 30.2398C15.436 28.4389 14.8572 26.2267 15.0977 24.026C15.3383 21.8253 16.3813 19.7903 18.0275 18.3101C19.6737 16.8299 21.8077 16.0082 24.0215 16.0021" fill="#D9D9D9"/>
</svg>
