<!-- 관 이미지
const gwan = (); -->
<svg
  className="flex-1"
  xmlns="http://www.w3.org/2000/svg"
  width="24"
  height="24"
  viewBox="0 0 24 24"
  fill="none"
>
  <g clipPath="url(#clip0_23_1462)">
    <path
      d="M12 0.799973L12.3584 0.0847732C12.2472 0.0290268 12.1244 0 12 0C11.8756 0 11.7528 0.0290268 11.6416 0.0847732L12 0.799973ZM7.2 13.6V12.8H6.4V13.6H7.2ZM13.6 13.6H14.4V12.8H13.6V13.6ZM0 24H24V22.4H0V24ZM11.6416 0.0847732L2.0416 4.88477L2.7584 6.31517L12.3584 1.51517L11.6416 0.0847732ZM0 9.59997H24V7.99997H0V9.59997ZM21.9584 4.88477L12.3584 0.0847732L11.6416 1.51517L21.2416 6.31517L21.9584 4.88477ZM1.6 8.79997V23.2H3.2V8.79997H1.6ZM20.8 8.79997V23.2H22.4V8.79997H20.8ZM8 23.2V13.6H6.4V23.2H8ZM7.2 14.4H13.6V12.8H7.2V14.4ZM12.8 13.6V23.2H14.4V13.6H12.8Z"
      fill="black"
    />
  </g>
  <defs>
    <clipPath id="clip0_23_1462">
      <rect width="24" height="24" fill="white" />
    </clipPath>
  </defs>
</svg>