<svg
  xmlns="http://www.w3.org/2000/svg"
  width="27"
  height="24"
  viewBox="0 0 27 24"
  fill="none"
>
  <path
    d="M23.2265 3.76815C22.6645 3.20759 21.9972 2.76292 21.2628 2.45954C20.5284 2.15615 19.7412 2 18.9463 2C18.1513 2 17.3641 2.15615 16.6297 2.45954C15.8953 2.76292 15.228 3.20759 14.666 3.76815L13.4997 4.93095L12.3334 3.76815C11.1982 2.6364 9.65854 2.00059 8.05315 2.00059C6.44775 2.00059 4.90811 2.6364 3.77293 3.76815C2.63774 4.89989 2 6.43487 2 8.03541C2 9.63594 2.63774 11.1709 3.77293 12.3027L4.93926 13.4655L13.4997 22L22.0602 13.4655L23.2265 12.3027C23.7887 11.7424 24.2348 11.0771 24.5391 10.3449C24.8434 9.61276 25 8.82796 25 8.03541C25 7.24285 24.8434 6.45806 24.5391 5.72587C24.2348 4.99368 23.7887 4.32844 23.2265 3.76815Z"
    stroke="current"
    strokeWidth="3"
    strokeLinecap="round"
    strokeLinejoin="round"
  />
</svg>