<svg
  xmlns="http://www.w3.org/2000/svg"
  width="25"
  height="25"
  viewBox="0 0 25 25"
  fill="none"
>
  <path
    d="M2.89909 24.5C2.16575 24.5 1.5382 24.2391 1.01642 23.7173C0.494644 23.1956 0.233311 22.5676 0.232422 21.8333V3.16667C0.232422 2.43333 0.493755 1.80578 1.01642 1.284C1.53909 0.762222 2.16664 0.500889 2.89909 0.5H21.5658C22.2991 0.5 22.9271 0.761333 23.4498 1.284C23.9724 1.80667 24.2333 2.43422 24.2324 3.16667V21.8333C24.2324 22.5667 23.9715 23.1947 23.4498 23.7173C22.928 24.24 22.3 24.5009 21.5658 24.5H2.89909ZM2.89909 21.8333H21.5658V3.16667H2.89909V21.8333ZM4.23242 19.1667H20.2324L15.2324 12.5L11.2324 17.8333L8.23242 13.8333L4.23242 19.1667Z"
    fill="#B5B5B5"
  />
</svg>