<svg width="61" height="60" viewBox="0 0 61 60" fill="none" xmlns="http://www.w3.org/2000/svg">
<rect x="1" width="60" height="60" rx="3" fill="#E3E3E3"/>
<g filter="url(#filter0_d_671_575)">
<path d="M40.7842 39.7299C40.7842 40.2022 40.6199 40.6026 40.2913 40.9312C39.9833 41.2598 39.552 41.4241 38.9975 41.4241C38.4431 41.4241 38.0016 41.2598 37.673 40.9312C37.365 40.6026 37.2109 40.2022 37.2109 39.7299V22.4183C37.2109 21.3709 37.4676 20.5803 37.981 20.0464C38.4944 19.5124 39.3056 19.2455 40.4145 19.2455H48.7931C49.2449 19.2455 49.6145 19.3892 49.902 19.6767C50.1895 19.9437 50.3333 20.3133 50.3333 20.7857C50.3333 21.258 50.1895 21.6379 49.902 21.9254C49.6145 22.1924 49.2449 22.3258 48.7931 22.3258H41.7699C41.1127 22.3258 40.7842 22.6544 40.7842 23.3116V28.6098H47.8998C48.3516 28.6098 48.7212 28.7535 49.0087 29.041C49.2962 29.308 49.44 29.6776 49.44 30.1499C49.44 30.6223 49.2962 31.0022 49.0087 31.2897C48.7212 31.5566 48.3516 31.6901 47.8998 31.6901H40.7842V39.7299Z" fill="#5956E8"/>
</g>
<g filter="url(#filter1_d_671_575)">
<path d="M32.7439 26.9464C32.7439 26.4741 32.8877 26.0736 33.1752 25.7451C33.4627 25.4165 33.8836 25.2522 34.4381 25.2522C34.9926 25.2522 35.4136 25.4165 35.7011 25.7451C35.9886 26.0736 36.1323 26.4741 36.1323 26.9464V39.7299C36.1323 40.2022 35.9886 40.6027 35.7011 40.9312C35.4136 41.2598 34.9926 41.4241 34.4381 41.4241C33.8836 41.4241 33.4627 41.2598 33.1752 40.9312C32.8877 40.6027 32.7439 40.2022 32.7439 39.7299V26.9464ZM32.1895 20.5701C32.1895 19.9129 32.4153 19.379 32.8671 18.9683C33.3189 18.537 33.8426 18.3214 34.4381 18.3214C35.0336 18.3214 35.5573 18.537 36.0091 18.9683C36.4609 19.379 36.6868 19.9129 36.6868 20.5701C36.6868 21.2272 36.4609 21.7611 36.0091 22.1719C35.5573 22.5826 35.0336 22.7879 34.4381 22.7879C33.8426 22.7879 33.3189 22.5826 32.8671 22.1719C32.4153 21.7611 32.1895 21.2272 32.1895 20.5701Z" fill="#5956E8"/>
</g>
<g filter="url(#filter2_d_671_575)">
<path d="M30.8312 29.1026C31.3446 29.1026 31.7348 29.2361 32.0018 29.5031C32.2893 29.7495 32.433 30.0883 32.433 30.5196V30.9816C32.433 32.4397 32.1558 33.8258 31.6013 35.1401C31.0674 36.4339 30.3076 37.5736 29.3219 38.5593C28.3362 39.5245 27.1451 40.2946 25.7487 40.8696C24.3728 41.4446 22.8531 41.7321 21.1897 41.7321C19.4853 41.7321 17.9143 41.424 16.4768 40.808C15.0393 40.1919 13.7969 39.3602 12.7496 38.3129C11.7228 37.2656 10.9219 36.0437 10.3469 34.6473C9.77187 33.2508 9.48438 31.762 9.48438 30.1807C9.48438 28.5789 9.77187 27.0798 10.3469 25.6834C10.9219 24.287 11.733 23.0651 12.7804 22.0178C13.8277 20.9705 15.0701 20.149 16.5076 19.5535C17.9656 18.9374 19.5777 18.6294 21.3438 18.6294C23.0071 18.6294 24.4754 18.8861 25.7487 19.3995C27.0219 19.8923 28.0589 20.4673 28.8598 21.1245C29.3321 21.5147 29.5888 21.9356 29.6299 22.3874C29.671 22.8187 29.5683 23.1883 29.3219 23.4964C29.096 23.8044 28.7777 24.0098 28.367 24.1124C27.9768 24.1946 27.5866 24.0919 27.1964 23.8044C26.4161 23.2499 25.5638 22.7673 24.6397 22.3566C23.7362 21.9254 22.6375 21.7098 21.3438 21.7098C20.1116 21.7098 18.9821 21.9254 17.9554 22.3566C16.9491 22.7879 16.0763 23.3834 15.3371 24.1432C14.6183 24.8825 14.0536 25.7758 13.6429 26.8231C13.2527 27.8499 13.0576 28.9691 13.0576 30.1807C13.0576 31.3923 13.2527 32.5115 13.6429 33.5383C14.0536 34.5651 14.6183 35.4584 15.3371 36.2182C16.0558 36.9781 16.908 37.5736 17.8938 38.0048C18.9 38.4361 19.9987 38.6517 21.1897 38.6517C22.2576 38.6517 23.233 38.4874 24.1161 38.1589C24.9991 37.8303 25.7692 37.3785 26.4263 36.8035C27.0835 36.2285 27.6277 35.5508 28.0589 34.7705C28.4902 33.9696 28.7879 33.1071 28.9522 32.183H22.2063C21.6723 32.183 21.2616 32.0187 20.9741 31.6901C20.7071 31.3615 20.5737 31.0022 20.5737 30.612C20.5737 30.2423 20.7071 29.9035 20.9741 29.5955C21.2616 29.2669 21.6723 29.1026 22.2063 29.1026H30.8312Z" fill="#5956E8"/>
</g>
<defs>
<filter id="filter0_d_671_575" x="27.9109" y="12.9455" width="31.723" height="40.7786" filterUnits="userSpaceOnUse" color-interpolation-filters="sRGB">
<feFlood flood-opacity="0" result="BackgroundImageFix"/>
<feColorMatrix in="SourceAlpha" type="matrix" values="0 0 0 0 0 0 0 0 0 0 0 0 0 0 0 0 0 0 127 0" result="hardAlpha"/>
<feOffset dy="3"/>
<feGaussianBlur stdDeviation="4.65"/>
<feComposite in2="hardAlpha" operator="out"/>
<feColorMatrix type="matrix" values="0 0 0 0 0 0 0 0 0 0 0 0 0 0 0 0 0 0 0.25 0"/>
<feBlend mode="normal" in2="BackgroundImageFix" result="effect1_dropShadow_671_575"/>
<feBlend mode="normal" in="SourceGraphic" in2="effect1_dropShadow_671_575" result="shape"/>
</filter>
<filter id="filter1_d_671_575" x="22.8895" y="12.0214" width="23.098" height="41.7027" filterUnits="userSpaceOnUse" color-interpolation-filters="sRGB">
<feFlood flood-opacity="0" result="BackgroundImageFix"/>
<feColorMatrix in="SourceAlpha" type="matrix" values="0 0 0 0 0 0 0 0 0 0 0 0 0 0 0 0 0 0 127 0" result="hardAlpha"/>
<feOffset dy="3"/>
<feGaussianBlur stdDeviation="4.65"/>
<feComposite in2="hardAlpha" operator="out"/>
<feColorMatrix type="matrix" values="0 0 0 0 0 0 0 0 0 0 0 0 0 0 0 0 0 0 0.25 0"/>
<feBlend mode="normal" in2="BackgroundImageFix" result="effect1_dropShadow_671_575"/>
<feBlend mode="normal" in="SourceGraphic" in2="effect1_dropShadow_671_575" result="shape"/>
</filter>
<filter id="filter2_d_671_575" x="0.184375" y="12.3294" width="41.5492" height="41.7027" filterUnits="userSpaceOnUse" color-interpolation-filters="sRGB">
<feFlood flood-opacity="0" result="BackgroundImageFix"/>
<feColorMatrix in="SourceAlpha" type="matrix" values="0 0 0 0 0 0 0 0 0 0 0 0 0 0 0 0 0 0 127 0" result="hardAlpha"/>
<feOffset dy="3"/>
<feGaussianBlur stdDeviation="4.65"/>
<feComposite in2="hardAlpha" operator="out"/>
<feColorMatrix type="matrix" values="0 0 0 0 0 0 0 0 0 0 0 0 0 0 0 0 0 0 0.25 0"/>
<feBlend mode="normal" in2="BackgroundImageFix" result="effect1_dropShadow_671_575"/>
<feBlend mode="normal" in="SourceGraphic" in2="effect1_dropShadow_671_575" result="shape"/>
</filter>
</defs>
</svg>
