<!-- 잃어버린 물건 이미지
const lostItem = (); -->

<svg
  className="flex-1"
  xmlns="http://www.w3.org/2000/svg"
  width="24"
  height="24"
  viewBox="0 0 24 24"
  fill="none"
>
  <path
    d="M19.31 18.9001C19.75 18.2101 20 17.3801 20 16.5001C20 14.0001 18 12.0001 15.5 12.0001C13 12.0001 11 14.0001 11 16.5001C11 19.0001 13 21.0001 15.5 21.0001C16.37 21.0001 17.19 20.7501 17.88 20.3201L21 23.3901L22.39 22.0001L19.31 18.9001ZM15.5 19.0001C14.837 19.0001 14.2011 18.7367 13.7322 18.2679C13.2634 17.799 13 17.1632 13 16.5001C13 15.8371 13.2634 15.2012 13.7322 14.7324C14.2011 14.2635 14.837 14.0001 15.5 14.0001C16.163 14.0001 16.7989 14.2635 17.2678 14.7324C17.7366 15.2012 18 15.8371 18 16.5001C18 17.1632 17.7366 17.799 17.2678 18.2679C16.7989 18.7367 16.163 19.0001 15.5 19.0001ZM5 20.0001V12.0001H2L12 3.00012L22 12.0001H20.18C19 10.7701 17.34 10.0001 15.5 10.0001C11.92 10.0001 9 12.9201 9 16.5001C9 17.7901 9.38 19.0001 10.03 20.0001H5Z"
    fill="black"
  />
</svg>