<svg width="72" height="72" viewBox="0 0 72 72" fill="none" xmlns="http://www.w3.org/2000/svg">
<g id="&#237;&#148;&#132;&#235;&#161;&#156;&#237;&#149;&#132;">
<g clip-path="url(#clip0_124_771)">
<rect width="72" height="72" rx="36" fill="#CBCCCE"/>
<path id="Vector" d="M36.0605 45C43.9337 45 50.3105 38.6231 50.3105 30.75C50.3105 22.8769 43.9337 16.5 36.0605 16.5C28.1874 16.5 21.8105 22.8769 21.8105 30.75C21.8105 38.6231 28.1874 45 36.0605 45ZM36.0605 52.125C26.5487 52.125 7.56055 56.8987 7.56055 66.375V69.9375C7.56055 71.8969 9.16367 73.5 11.123 73.5H60.998C62.9574 73.5 64.5605 71.8969 64.5605 69.9375V66.375C64.5605 56.8987 45.5724 52.125 36.0605 52.125Z" fill="white"/>
</g>
</g>
<defs>
<clipPath id="clip0_124_771">
<rect width="72" height="72" rx="36" fill="white"/>
</clipPath>
</defs>
</svg>
